<?xml version="1.0" encoding="UTF-8"?>
<svg version="1.1" xmlns="http://www.w3.org/2000/svg" width="501" height="449">
<path d="M0 0 C0.75662933 0.00060425 1.51325867 0.0012085 2.29281616 0.00183105 C50.23389287 0.10485314 98.96972437 8.99849607 138.1875 38.1875 C139.01121094 38.78691406 139.83492188 39.38632812 140.68359375 40.00390625 C146.18120195 44.18353285 151.09937457 48.89919937 156 53.75 C156.63470215 54.37535645 157.2694043 55.00071289 157.92333984 55.64501953 C167.58425806 65.37237093 167.58425806 65.37237093 168.9375 71.6875 C167.34539177 79.11733841 160.00975809 83.19953631 154.23828125 87.57421875 C152.04345749 89.23521185 152.04345749 89.23521185 149.75 91.625 C147.36000464 94.01499536 144.91743174 95.99444653 142.25 98.0625 C139.2100629 100.44527423 136.61091021 102.69591557 134.25 105.75 C131.79348514 108.83460105 129.1255597 110.59782964 125.75 112.625 C121.2275389 115.34944759 118.28231018 118.11786386 115.0078125 122.20703125 C112.21082569 125.25010488 108.84016317 127.31658339 105.4140625 129.59375 C102.79442464 131.46885921 101.07909696 133.59531157 99.1875 136.1875 C95.61438331 139.57255791 93.09346048 140.73113158 88.1875 141.1875 C86.72870535 146.43916075 85.9268675 151.39064636 85.47265625 156.81640625 C85.1875 159.1875 85.1875 159.1875 84.125 162.6875 C82.90463017 167.24354736 83.0177826 171.50141393 83.1875 176.1875 C85.1675 176.1875 87.1475 176.1875 89.1875 176.1875 C88.8575 178.4975 88.5275 180.8075 88.1875 183.1875 C87.1975 183.1875 86.2075 183.1875 85.1875 183.1875 C84.8575 184.1775 84.5275 185.1675 84.1875 186.1875 C85.8375 186.5175 87.4875 186.8475 89.1875 187.1875 C89.1875 188.1775 89.1875 189.1675 89.1875 190.1875 C88.5275 190.5175 87.8675 190.8475 87.1875 191.1875 C86.85754728 194.16113244 86.85754728 194.16113244 88.57055664 195.76220703 C94.21874551 200.24173249 98.51909555 201.08212788 105.625 201.0625 C107.12075562 201.0934375 107.12075562 201.0934375 108.64672852 201.125 C111.82774462 201.18049868 115.00603359 201.19040633 118.1875 201.1875 C119.73244141 201.18991699 119.73244141 201.18991699 121.30859375 201.19238281 C125.44869602 201.19629842 129.58868343 201.19133127 133.72875977 201.17602539 C141.34490559 201.15635159 148.9500975 201.25605331 156.5625 201.5 C158.09668579 201.53383789 158.09668579 201.53383789 159.66186523 201.56835938 C160.60618408 201.60380859 161.55050293 201.63925781 162.5234375 201.67578125 C163.35407715 201.70196533 164.1847168 201.72814941 165.04052734 201.75512695 C167.70921047 202.29256587 168.47145762 203.10877042 170.1875 205.1875 C171.65082741 213.21489887 171.32896471 221.41942671 171.31689453 229.55444336 C171.31825163 231.09617657 171.3200333 232.63790945 171.32220459 234.17964172 C171.32674257 238.34494478 171.32500427 242.51022292 171.3218255 246.67552638 C171.31928261 251.04837912 171.32164485 255.42122981 171.32321167 259.79408264 C171.32502793 267.13673279 171.3226415 274.47937287 171.31787109 281.82202148 C171.31243155 290.29202169 171.31419109 298.76199781 171.3196975 307.23199743 C171.32424652 314.52314742 171.32487037 321.8142902 171.32225883 329.10544115 C171.32070564 333.45174177 171.32047589 337.7980311 171.32379532 342.14433098 C171.32670001 346.23277721 171.32465091 350.32119262 171.31890106 354.40963554 C171.31758725 355.90350799 171.31794393 357.39738305 171.32016373 358.89125443 C171.35132109 382.00375472 171.35132109 382.00375472 166.5625 387.375 C165.83804687 388.2 165.11359375 389.025 164.3671875 389.875 C163.64789063 390.638125 162.92859375 391.40125 162.1875 392.1875 C161.59195312 392.826875 160.99640625 393.46625 160.3828125 394.125 C158.69529189 395.86695676 156.96422479 397.53683994 155.1875 399.1875 C154.59582031 399.73792969 154.00414062 400.28835938 153.39453125 400.85546875 C142.60749725 410.57492001 130.81893402 418.14469141 118.1875 425.1875 C117.20394531 425.74308594 116.22039062 426.29867188 115.20703125 426.87109375 C85.79878477 442.53003019 50.73013215 449.32143351 17.65234375 449.35546875 C15.9142318 449.36046135 15.9142318 449.36046135 14.14100647 449.36555481 C11.70313916 449.37058468 9.26526507 449.37296436 6.82739258 449.37280273 C3.15889719 449.37497988 -0.50929234 449.39315293 -4.17773438 449.41210938 C-21.34546117 449.45388866 -38.03604352 448.55341875 -54.9375 445.375 C-56.31603149 445.11734863 -56.31603149 445.11734863 -57.72241211 444.85449219 C-77.466391 441.02257336 -96.74580326 433.98813916 -114.8125 425.1875 C-114.8125 424.5275 -114.8125 423.8675 -114.8125 423.1875 C-117.1225 422.5275 -119.4325 421.8675 -121.8125 421.1875 C-121.8125 420.5275 -121.8125 419.8675 -121.8125 419.1875 C-122.8025 419.1875 -123.7925 419.1875 -124.8125 419.1875 C-124.8125 418.5275 -124.8125 417.8675 -124.8125 417.1875 C-125.946875 416.919375 -127.08125 416.65125 -128.25 416.375 C-129.425625 415.983125 -130.60125 415.59125 -131.8125 415.1875 C-132.1425 414.1975 -132.4725 413.2075 -132.8125 412.1875 C-133.781875 411.89875 -134.75125 411.61 -135.75 411.3125 C-136.760625 410.94125 -137.77125 410.57 -138.8125 410.1875 C-139.53409424 408.54386866 -140.20601421 406.87699614 -140.8125 405.1875 C-142.83713255 404.53536708 -142.83713255 404.53536708 -144.8125 404.1875 C-145.1425 403.1975 -145.4725 402.2075 -145.8125 401.1875 C-146.8025 401.1875 -147.7925 401.1875 -148.8125 401.1875 C-148.8125 400.5275 -148.8125 399.8675 -148.8125 399.1875 C-149.8025 399.1875 -150.7925 399.1875 -151.8125 399.1875 C-151.8125 398.1975 -151.8125 397.2075 -151.8125 396.1875 C-152.8025 396.1875 -153.7925 396.1875 -154.8125 396.1875 C-156.57421875 394.31640625 -156.57421875 394.31640625 -158.5 391.75 C-161.18673899 388.24491482 -163.92672793 384.91786773 -166.9375 381.6875 C-170.96238877 377.22152753 -173.85000828 372.39302116 -176.8125 367.1875 C-177.66016173 365.85002175 -178.51400175 364.51643208 -179.375 363.1875 C-184.57611763 354.82557455 -187.77155562 346.84465144 -189.8125 337.1875 C-190.56015625 337.09855469 -191.3078125 337.00960938 -192.078125 336.91796875 C-195.30615525 336.33067005 -197.88320887 335.68384785 -200.8125 334.1875 C-202.96888186 330.70035352 -203.8109408 327.13078166 -204.8125 323.1875 C-205.50561446 320.90283803 -205.50561446 320.90283803 -206.8125 319.1875 C-209.12216256 318.46788499 -211.31906213 318.24924365 -213.71875 317.97265625 C-215.8125 317.1875 -215.8125 317.1875 -217 314.99609375 C-219.73809722 305.53122884 -221.45608786 295.93770964 -222.8125 286.1875 C-223.43898438 286.22230469 -224.06546875 286.25710938 -224.7109375 286.29296875 C-225.52820313 286.32003906 -226.34546875 286.34710938 -227.1875 286.375 C-227.99960938 286.40980469 -228.81171875 286.44460938 -229.6484375 286.48046875 C-230.36257812 286.38378906 -231.07671875 286.28710938 -231.8125 286.1875 C-234.23380331 282.55554504 -234.02272785 280.80400652 -233.9375 276.5 C-233.91945313 275.32050781 -233.90140625 274.14101563 -233.8828125 272.92578125 C-233.85960937 272.02214844 -233.83640625 271.11851562 -233.8125 270.1875 C-234.80262085 270.12018677 -234.80262085 270.12018677 -235.81274414 270.05151367 C-238.83455152 269.83879242 -241.85461837 269.60705594 -244.875 269.375 C-245.91333984 269.30474609 -246.95167969 269.23449219 -248.02148438 269.16210938 C-253.88263589 268.69693862 -258.64592632 268.07656365 -263.8125 265.1875 C-267.17828661 260.0266272 -267.9456095 254.94922498 -267.91015625 248.88671875 C-267.90693359 247.91025391 -267.90371094 246.93378906 -267.90039062 245.92773438 C-267.88782227 244.41663086 -267.88782227 244.41663086 -267.875 242.875 C-267.87048828 241.84826172 -267.86597656 240.82152344 -267.86132812 239.76367188 C-267.84958184 237.23822118 -267.83315565 234.71289095 -267.8125 232.1875 C-270.1225 231.8575 -272.4325 231.5275 -274.8125 231.1875 C-274.8125 230.5275 -274.8125 229.8675 -274.8125 229.1875 C-275.823125 229.0225 -276.83375 228.8575 -277.875 228.6875 C-283.00699836 227.28405555 -285.69621678 223.26045376 -288.8125 219.1875 C-289.1425 220.1775 -289.4725 221.1675 -289.8125 222.1875 C-288.4925 222.5175 -287.1725 222.8475 -285.8125 223.1875 C-286.1425 224.8375 -286.4725 226.4875 -286.8125 228.1875 C-287.49957031 228.19007813 -288.18664062 228.19265625 -288.89453125 228.1953125 C-291.6527536 228.31369114 -294.13515171 228.50199537 -296.8125 229.1875 C-299.05136732 232.07429844 -299.05136732 232.07429844 -299.8125 235.1875 C-302.125 235.4375 -302.125 235.4375 -304.8125 235.1875 C-306.625 233.375 -306.625 233.375 -307.8125 231.1875 C-307.8125 230.1975 -307.8125 229.2075 -307.8125 228.1875 C-309.4625 227.8575 -311.1125 227.5275 -312.8125 227.1875 C-312.8125 225.5375 -312.8125 223.8875 -312.8125 222.1875 C-311.8225 221.8575 -310.8325 221.5275 -309.8125 221.1875 C-312.7825 220.5275 -315.7525 219.8675 -318.8125 219.1875 C-318.8125 218.5275 -318.8125 217.8675 -318.8125 217.1875 C-319.534375 217.5175 -320.25625 217.8475 -321 218.1875 C-323.8463766 219.19954501 -325.82211842 219.43669846 -328.8125 219.1875 C-330.67690575 217.32309425 -329.98624427 214.3050383 -330 211.8125 C-330.01417969 210.64976562 -330.02835937 209.48703125 -330.04296875 208.2890625 C-329.8125 205.1875 -329.8125 205.1875 -327.8125 202.1875 C-327.1525 202.1875 -326.4925 202.1875 -325.8125 202.1875 C-325.8125 200.8675 -325.8125 199.5475 -325.8125 198.1875 C-326.4725 198.1875 -327.1325 198.1875 -327.8125 198.1875 C-327.8125 196.5375 -327.8125 194.8875 -327.8125 193.1875 C-325.5025 192.8575 -323.1925 192.5275 -320.8125 192.1875 C-320.8125 189.5475 -320.8125 186.9075 -320.8125 184.1875 C-319.4925 184.1875 -318.1725 184.1875 -316.8125 184.1875 C-316.66534236 182.62512417 -316.51989044 181.06258772 -316.375 179.5 C-316.23578125 178.00919922 -316.23578125 178.00919922 -316.09375 176.48828125 C-315.90021841 174.21697296 -315.73515766 171.94311703 -315.59375 169.66796875 C-315.5215625 168.51941406 -315.449375 167.37085938 -315.375 166.1875 C-315.31441406 165.115 -315.25382812 164.0425 -315.19140625 162.9375 C-314.8125 160.1875 -314.8125 160.1875 -312.8125 157.1875 C-311.8225 157.1875 -310.8325 157.1875 -309.8125 157.1875 C-309.75191406 156.57261719 -309.69132812 155.95773438 -309.62890625 155.32421875 C-309.54511719 154.51597656 -309.46132813 153.70773438 -309.375 152.875 C-309.29378906 152.07449219 -309.21257812 151.27398437 -309.12890625 150.44921875 C-308.8125 148.1875 -308.8125 148.1875 -307.8125 145.1875 C-305.1725 144.8575 -302.5325 144.5275 -299.8125 144.1875 C-299.84730469 143.35347656 -299.88210938 142.51945313 -299.91796875 141.66015625 C-300.24752825 127.95989709 -300.24752825 127.95989709 -296.8125 122.1875 C-292.57514447 119.00948336 -289.00922085 118.87569675 -283.8125 119.1875 C-283.626875 118.011875 -283.626875 118.011875 -283.4375 116.8125 C-282.8125 114.1875 -282.8125 114.1875 -280.8125 112.1875 C-277.5546875 111.9921875 -277.5546875 111.9921875 -273.6875 112.0625 C-271.76550781 112.08957031 -271.76550781 112.08957031 -269.8046875 112.1171875 C-268.32355469 112.15199219 -268.32355469 112.15199219 -266.8125 112.1875 C-266.44125 113.30125 -266.07 114.415 -265.6875 115.5625 C-264.3330979 118.80128762 -264.05037197 119.08022441 -260.625 120.625 C-259.696875 120.810625 -258.76875 120.99625 -257.8125 121.1875 C-257.8125 120.5275 -257.8125 119.8675 -257.8125 119.1875 C-255.8325 119.5175 -253.8525 119.8475 -251.8125 120.1875 C-251.833125 118.929375 -251.85375 117.67125 -251.875 116.375 C-251.92136083 113.54698913 -251.72942961 111.93828884 -250.8125 109.1875 C-250.58798542 106.96175665 -250.40467122 104.73168481 -250.25 102.5 C-250.12431641 100.73076172 -250.12431641 100.73076172 -249.99609375 98.92578125 C-249.93550781 98.02214844 -249.87492187 97.11851563 -249.8125 96.1875 C-248.78769531 96.21070312 -247.76289063 96.23390625 -246.70703125 96.2578125 C-245.34636149 96.27658036 -243.9856838 96.29477947 -242.625 96.3125 C-241.61469727 96.33763672 -241.61469727 96.33763672 -240.58398438 96.36328125 C-236.46624759 96.40345429 -233.55405 95.82763151 -229.8125 94.1875 C-227.57421875 93.9921875 -227.57421875 93.9921875 -225.5 94.0625 C-224.283125 94.10375 -223.06625 94.145 -221.8125 94.1875 C-221.8125 93.5275 -221.8125 92.8675 -221.8125 92.1875 C-220.8225 92.1875 -219.8325 92.1875 -218.8125 92.1875 C-216.92858215 95.45295761 -216.31962033 98.46861761 -215.8125 102.1875 C-215.1525 101.5275 -214.4925 100.8675 -213.8125 100.1875 C-211.4296875 99.7734375 -211.4296875 99.7734375 -208.6875 99.5625 C-207.32238281 99.45035156 -207.32238281 99.45035156 -205.9296875 99.3359375 C-205.23101562 99.28695312 -204.53234375 99.23796875 -203.8125 99.1875 C-202.3908681 102.5046411 -201.42240891 105.62969804 -200.8125 109.1875 C-198.894375 109.6515625 -198.894375 109.6515625 -196.9375 110.125 C-194.71148325 110.66355244 -192.86510001 111.1612 -190.8125 112.1875 C-190.6578125 111.2284375 -190.6578125 111.2284375 -190.5 110.25 C-187.62796743 97.45640039 -180.80848685 86.81739589 -173.625 76 C-173.00947266 75.04802734 -172.39394531 74.09605469 -171.75976562 73.11523438 C-171.16486328 72.21740234 -170.56996094 71.31957031 -169.95703125 70.39453125 C-169.42440674 69.5847583 -168.89178223 68.77498535 -168.34301758 67.94067383 C-167.83794678 67.36212646 -167.33287598 66.7835791 -166.8125 66.1875 C-165.8225 66.1875 -164.8325 66.1875 -163.8125 66.1875 C-163.71582031 65.59839844 -163.61914062 65.00929688 -163.51953125 64.40234375 C-162.66675506 61.73093989 -161.54440327 60.64556021 -159.5 58.75 C-157.27457704 56.63835122 -155.44097922 54.70245898 -153.5625 52.25 C-152.985 51.569375 -152.4075 50.88875 -151.8125 50.1875 C-150.8225 50.1875 -149.8325 50.1875 -148.8125 50.1875 C-148.44125 49.2284375 -148.44125 49.2284375 -148.0625 48.25 C-146.8125 46.1875 -146.8125 46.1875 -144.75 45.625 C-144.110625 45.480625 -143.47125 45.33625 -142.8125 45.1875 C-142.4825 44.1975 -142.1525 43.2075 -141.8125 42.1875 C-140.8225 42.1875 -139.8325 42.1875 -138.8125 42.1875 C-138.52375 41.56875 -138.235 40.95 -137.9375 40.3125 C-136.8125 38.1875 -136.8125 38.1875 -134.8125 36.1875 C-133.8225 36.1875 -132.8325 36.1875 -131.8125 36.1875 C-131.8125 35.5275 -131.8125 34.8675 -131.8125 34.1875 C-130.8225 34.1875 -129.8325 34.1875 -128.8125 34.1875 C-128.8125 33.5275 -128.8125 32.8675 -128.8125 32.1875 C-126.5025 31.5275 -124.1925 30.8675 -121.8125 30.1875 C-121.8125 29.5275 -121.8125 28.8675 -121.8125 28.1875 C-119.68967331 27.18289469 -117.56416979 26.18394398 -115.4375 25.1875 C-114.25414062 24.630625 -113.07078125 24.07375 -111.8515625 23.5 C-108.8125 22.1875 -108.8125 22.1875 -106.8125 22.1875 C-106.8125 21.5275 -106.8125 20.8675 -106.8125 20.1875 C-71.98156858 6.47991421 -37.33321354 -0.05570043 0 0 Z " fill="#FDFDFD" transform="translate(329.8125,-0.1875)"/>
<path d="M0 0 C1.9958117 0.04899135 3.9918939 0.08654959 5.98796082 0.12371635 C7.14477356 0.16154732 8.3015863 0.19937828 9.49345398 0.23835564 C10.97005493 0.28180862 10.97005493 0.28180862 12.47648621 0.32613945 C15.36563086 0.84866171 16.0781715 1.52434692 17.90556335 3.76545525 C19.36889076 11.79285412 19.04702806 19.99738196 19.03495789 28.13239861 C19.03631499 29.67413181 19.03809665 31.21586469 19.04026794 32.75759697 C19.04480592 36.92290003 19.04306762 41.08817816 19.03988886 45.25348163 C19.03734597 49.62633437 19.0397082 53.99918506 19.04127502 58.37203789 C19.04309129 65.71468804 19.04070486 73.05732811 19.03593445 80.39997673 C19.03049491 88.86997694 19.03225444 97.33995306 19.03776085 105.80995268 C19.04230988 113.10110267 19.04293372 120.39224544 19.04032218 127.6833964 C19.03876899 132.02969702 19.03853925 136.37598635 19.04185867 140.72228622 C19.04476336 144.81073245 19.04271426 148.89914786 19.03696442 152.98759079 C19.0356506 154.48146323 19.03600728 155.9753383 19.03822708 157.46920967 C19.06938445 180.58170997 19.06938445 180.58170997 14.28056335 185.95295525 C13.55611023 186.77795525 12.8316571 187.60295525 12.08525085 188.45295525 C11.36595398 189.21608025 10.6466571 189.97920525 9.90556335 190.76545525 C9.31001648 191.40483025 8.7144696 192.04420525 8.10087585 192.70295525 C6.41335525 194.444912 4.68228815 196.11479519 2.90556335 197.76545525 C2.31388367 198.31588493 1.72220398 198.86631462 1.1125946 199.433424 C-9.6744394 209.15287525 -21.46300262 216.72264666 -34.09443665 223.76545525 C-35.07799133 224.32104118 -36.06154602 224.87662712 -37.0749054 225.449049 C-66.48315188 241.10798544 -101.55180449 247.89938875 -134.6295929 247.933424 C-135.7883342 247.9367524 -136.9470755 247.9400808 -138.14093018 247.94351006 C-140.57879748 247.94853992 -143.01667158 247.95091961 -145.45454407 247.95075798 C-149.12303946 247.95293513 -152.79122898 247.97110817 -156.45967102 247.99006462 C-173.62739782 248.03184391 -190.31798017 247.131374 -207.21943665 243.95295525 C-208.13845764 243.78118767 -209.05747864 243.60942009 -210.00434875 243.43244743 C-229.74832764 239.60052861 -249.0277399 232.56609441 -267.09443665 223.76545525 C-267.09443665 223.10545525 -267.09443665 222.44545525 -267.09443665 221.76545525 C-269.40443665 221.10545525 -271.71443665 220.44545525 -274.09443665 219.76545525 C-274.09443665 219.10545525 -274.09443665 218.44545525 -274.09443665 217.76545525 C-275.08443665 217.76545525 -276.07443665 217.76545525 -277.09443665 217.76545525 C-277.09443665 217.10545525 -277.09443665 216.44545525 -277.09443665 215.76545525 C-278.22881165 215.49733025 -279.36318665 215.22920525 -280.53193665 214.95295525 C-282.29537415 214.36514275 -282.29537415 214.36514275 -284.09443665 213.76545525 C-284.42443665 212.77545525 -284.75443665 211.78545525 -285.09443665 210.76545525 C-286.06381165 210.47670525 -287.03318665 210.18795525 -288.03193665 209.89045525 C-289.04256165 209.51920525 -290.05318665 209.14795525 -291.09443665 208.76545525 C-291.81603089 207.12182391 -292.48795085 205.45495139 -293.09443665 203.76545525 C-295.1190692 203.11332233 -295.1190692 203.11332233 -297.09443665 202.76545525 C-297.42443665 201.77545525 -297.75443665 200.78545525 -298.09443665 199.76545525 C-299.08443665 199.76545525 -300.07443665 199.76545525 -301.09443665 199.76545525 C-301.09443665 199.10545525 -301.09443665 198.44545525 -301.09443665 197.76545525 C-302.08443665 197.76545525 -303.07443665 197.76545525 -304.09443665 197.76545525 C-304.09443665 196.77545525 -304.09443665 195.78545525 -304.09443665 194.76545525 C-305.08443665 194.76545525 -306.07443665 194.76545525 -307.09443665 194.76545525 C-308.8561554 192.8943615 -308.8561554 192.8943615 -310.78193665 190.32795525 C-313.46867564 186.82287006 -316.20866458 183.49582297 -319.21943665 180.26545525 C-323.24432542 175.79948277 -326.13194493 170.9709764 -329.09443665 165.76545525 C-329.94209838 164.427977 -330.79593839 163.09438733 -331.65693665 161.76545525 C-339.09443665 149.90892116 -339.09443665 149.90892116 -339.09443665 144.76545525 C-338.10443665 144.93045525 -337.11443665 145.09545525 -336.09443665 145.26545525 C-319.62893177 147.18207486 -305.59499 145.48283736 -291.63349915 135.80451775 C-278.19274752 125.01056029 -269.96908983 109.16275622 -261.84443665 94.26545525 C-251.21078499 74.84593242 -251.21078499 74.84593242 -243.14912415 71.35139275 C-240.49316088 70.59398877 -237.82329983 70.17517125 -235.09443665 69.76545525 C-235.024505 70.3481115 -234.95457336 70.93076775 -234.88252258 71.53108025 C-231.47671667 99.39079163 -226.02414165 127.13758268 -203.09443665 145.76545525 C-179.50656847 162.73572874 -147.54964238 165.32889228 -119.4811554 160.85139275 C-105.54657266 158.18864016 -82.31057617 153.45126141 -73.09443665 141.76545525 C-72.62090512 139.12410777 -72.62090512 139.12410777 -72.6620636 136.10066032 C-72.63215332 134.33486626 -72.63215332 134.33486626 -72.60163879 132.53339958 C-72.5953949 131.29642326 -72.589151 130.05944695 -72.5827179 128.7849865 C-72.55776245 127.07925468 -72.55776245 127.07925468 -72.53230286 125.33906364 C-72.47440784 121.08554957 -72.44222762 116.83171692 -72.40693665 112.57795525 C-72.30381165 103.06983025 -72.20068665 93.56170525 -72.09443665 83.76545525 C-95.19443665 83.76545525 -118.29443665 83.76545525 -142.09443665 83.76545525 C-140.44443665 82.11545525 -138.79443665 80.46545525 -137.09443665 78.76545525 C-123.09105136 63.43997771 -118.89661323 45.68754251 -118.96943665 25.51545525 C-118.96556946 24.45971306 -118.96170227 23.40397087 -118.9577179 22.3162365 C-118.95900696 21.26307243 -118.96029602 20.20990837 -118.96162415 19.12483025 C-118.96331604 17.72442497 -118.96331604 17.72442497 -118.96504211 16.29572868 C-119.15534183 11.10377801 -119.63318751 5.93946725 -120.09443665 0.76545525 C-107.2176529 0.60970142 -94.34080417 0.46157953 -81.46382904 0.32249165 C-75.48078696 0.25764242 -69.49779344 0.19042559 -63.5148468 0.11726189 C-17.76928531 -0.43861363 -17.76928531 -0.43861363 0 0 Z " fill="#25293C" transform="translate(482.0944366455078,201.23454475402832)"/>
<path d="M0 0 C1.93379005 -0.01818602 3.86743023 -0.05059585 5.80102539 -0.08352661 C21.57046124 -0.14122479 34.65753777 3.8105562 46.18579102 14.7975769 C66.2143737 35.83940997 72.83979945 73.82886835 72.87719727 101.85617065 C72.87905029 103.11308716 72.88090332 104.37000366 72.8828125 105.66500854 C72.68352743 122.0248968 69.30818884 136.18227965 57.68188477 148.3288269 C53.96747307 151.57061632 49.90727204 154.03941241 45.50219727 156.23117065 C44.76485352 156.60370972 44.02750977 156.97624878 43.26782227 157.3600769 C34.74150343 160.04562648 23.23081852 159.66956587 15.12719727 155.98117065 C8.06862921 151.81334856 2.26044557 146.00142365 -3.49780273 140.23117065 C-4.25834961 139.4732019 -5.01889648 138.71523315 -5.80249023 137.93429565 C-6.42381836 137.3103894 -7.04514648 136.68648315 -7.68530273 136.04367065 C-10.8452493 132.88372408 -11.40165096 132.33656986 -15.74780273 131.91867065 C-22.24400353 131.9895383 -28.34886042 134.33651913 -34.49780273 136.23117065 C-35.41303711 136.46964722 -36.32827148 136.70812378 -37.27124023 136.9538269 C-50.27849416 140.38002786 -57.19025854 147.23231749 -63.8815918 158.57736206 C-66.49359918 163.07222688 -69.05872816 167.59284894 -71.61108398 172.12179565 C-80.91537266 188.6263729 -90.01300678 204.60341809 -108.66577148 211.3132019 C-119.86964821 213.99710713 -132.18686648 213.61871773 -142.49780273 208.23117065 C-143.40272461 207.76066284 -144.30764648 207.29015503 -145.23999023 206.8053894 C-149.84442295 204.22290323 -153.68194035 201.83894546 -156.49780273 197.23117065 C-156.49780273 196.57117065 -156.49780273 195.91117065 -156.49780273 195.23117065 C-157.4375293 195.10161987 -157.4375293 195.10161987 -158.39624023 194.9694519 C-159.62213867 194.75869019 -159.62213867 194.75869019 -160.87280273 194.54367065 C-161.68491211 194.41605347 -162.49702148 194.28843628 -163.33374023 194.1569519 C-165.49780273 193.23117065 -165.49780273 193.23117065 -166.69311523 191.0241394 C-169.41942756 181.56145343 -171.14206673 171.97652005 -172.49780273 162.23117065 C-173.12428711 162.26597534 -173.75077148 162.30078003 -174.39624023 162.3366394 C-175.21350586 162.36370972 -176.03077148 162.39078003 -176.87280273 162.41867065 C-177.68491211 162.45347534 -178.49702148 162.48828003 -179.33374023 162.5241394 C-180.04788086 162.42745972 -180.76202148 162.33078003 -181.49780273 162.23117065 C-183.91910604 158.59921569 -183.70803059 156.84767718 -183.62280273 152.54367065 C-183.60475586 151.36417847 -183.58670898 150.18468628 -183.56811523 148.9694519 C-183.54491211 148.06581909 -183.52170898 147.16218628 -183.49780273 146.23117065 C-184.1578833 146.18629517 -184.81796387 146.14141968 -185.49804688 146.09518433 C-188.51985425 145.88246307 -191.53992111 145.65072659 -194.56030273 145.41867065 C-195.59864258 145.34841675 -196.63698242 145.27816284 -197.70678711 145.20578003 C-203.56793863 144.74060927 -208.33122906 144.1202343 -213.49780273 141.23117065 C-216.86358934 136.07029785 -217.63091224 130.99289563 -217.59545898 124.9303894 C-217.59223633 123.95392456 -217.58901367 122.97745972 -217.58569336 121.97140503 C-217.57731445 120.96400269 -217.56893555 119.95660034 -217.56030273 118.91867065 C-217.55579102 117.89193237 -217.5512793 116.86519409 -217.54663086 115.80734253 C-217.53488458 113.28189183 -217.51845838 110.75656161 -217.49780273 108.23117065 C-220.96280273 107.73617065 -220.96280273 107.73617065 -224.49780273 107.23117065 C-224.49780273 106.57117065 -224.49780273 105.91117065 -224.49780273 105.23117065 C-225.61155273 104.94242065 -226.72530273 104.65367065 -227.87280273 104.35617065 C-231.59002959 103.20254853 -232.74114898 102.61744869 -234.56811523 99.27023315 C-237.79010115 91.89546539 -239.34798429 84.44317147 -236.57983398 76.64523315 C-232.92572975 69.52623397 -227.84348174 65.39963353 -220.49780273 62.23117065 C-217.24975586 61.84640503 -217.24975586 61.84640503 -213.77905273 61.82492065 C-212.51706055 61.80300659 -211.25506836 61.78109253 -209.95483398 61.7585144 C-207.31681315 61.74028524 -204.67879232 61.72205607 -202.04077148 61.7038269 C-200.7787793 61.68191284 -199.51678711 61.65999878 -198.21655273 61.63742065 C-197.0712207 61.63033081 -195.92588867 61.62324097 -194.74584961 61.61593628 C-191.0558683 61.17881883 -188.65702886 60.16422357 -185.49780273 58.23117065 C-182.82933974 54.22847616 -181.78493246 51.01758538 -182.49780273 46.23117065 C-184.7350581 42.71548365 -186.69257236 40.82868178 -190.49780273 39.23117065 C-192.13638219 38.9194409 -193.78349312 38.65028032 -195.43530273 38.41867065 C-200.18011434 37.53819015 -202.46514808 36.11675943 -205.49780273 32.23117065 C-208.2081597 28.16563521 -208.01307166 24.99945292 -207.49780273 20.23117065 C-205.53346234 14.55640953 -201.86979612 10.91716735 -196.49780273 8.23117065 C-194.31812913 8.02840598 -192.13292845 7.88423051 -189.94702148 7.7663269 C-189.27424667 7.72877289 -188.60147186 7.69121887 -187.90830994 7.65252686 C-185.66752244 7.52854354 -183.4264492 7.41097316 -181.18530273 7.29367065 C-179.60309076 7.20814624 -178.02089699 7.12228437 -176.4387207 7.03610229 C-173.96492068 6.90171327 -171.49109256 6.76800342 -169.01715088 6.63624573 C-163.42500561 6.3384154 -157.83430604 6.02076188 -152.24389648 5.69210815 C-134.89198827 4.68336533 -117.55624021 3.93722719 -100.17797852 3.57272339 C-93.30285467 3.42373927 -86.45885755 3.19581628 -79.59545898 2.7350769 C-71.46472007 2.19149408 -63.34172928 1.96513855 -55.19580078 1.78533936 C-39.08888365 1.43437002 -39.08888365 1.43437002 -22.99780273 0.66867065 C-15.3364755 0.23526818 -7.6727115 0.06260191 0 0 Z " fill="#FDFDFD" transform="translate(279.497802734375,123.76882934570313)"/>
<path d="M0 0 C1.134944 0.00090637 1.134944 0.00090637 2.29281616 0.00183105 C50.23389287 0.10485314 98.96972437 8.99849607 138.1875 38.1875 C139.01121094 38.78691406 139.83492188 39.38632812 140.68359375 40.00390625 C146.18120195 44.18353285 151.09937457 48.89919937 156 53.75 C156.63470215 54.37535645 157.2694043 55.00071289 157.92333984 55.64501953 C167.58425806 65.37237093 167.58425806 65.37237093 168.9375 71.6875 C167.34539177 79.11733841 160.00975809 83.19953631 154.23828125 87.57421875 C152.04345749 89.23521185 152.04345749 89.23521185 149.75 91.625 C147.36000464 94.01499536 144.91743174 95.99444653 142.25 98.0625 C139.2100629 100.44527423 136.61091021 102.69591557 134.25 105.75 C131.79348514 108.83460105 129.1255597 110.59782964 125.75 112.625 C121.2275389 115.34944759 118.28231018 118.11786386 115.0078125 122.20703125 C112.21082569 125.25010488 108.84016317 127.31658339 105.4140625 129.59375 C102.79442464 131.46885921 101.07909696 133.59531157 99.1875 136.1875 C95.84249281 139.27519894 93.63042823 140.44577575 89.1875 141.1875 C88.90777344 140.46046875 88.62804687 139.7334375 88.33984375 138.984375 C83.45692792 126.7378337 77.51491542 116.56400708 68.1875 107.1875 C67.59710938 106.56230469 67.00671875 105.93710938 66.3984375 105.29296875 C58.40032608 97.48864417 46.00392282 91.77929461 35.1875 89.1875 C34.13304687 88.91164063 33.07859375 88.63578125 31.9921875 88.3515625 C7.34139341 82.92340784 -20.97801065 84.04872471 -43.8125 95.1875 C-44.72128906 95.60515625 -45.63007813 96.0228125 -46.56640625 96.453125 C-51.40764826 98.84964309 -55.05392416 101.31110863 -58.72632694 105.31077766 C-64.74509405 111.66134268 -70.07526626 113.6255221 -78.76197815 113.86550903 C-80.24886652 113.87230199 -81.73576002 113.87804098 -83.22265625 113.8828125 C-84.80006001 113.92729461 -86.37733554 113.97654605 -87.95445251 114.03024292 C-92.09167042 114.15865449 -96.22747214 114.22409139 -100.36627197 114.27520752 C-104.48540818 114.33643887 -108.60277999 114.45524896 -112.72070312 114.5703125 C-119.11072431 114.74291879 -125.50058423 114.88390096 -131.8918457 115.0012207 C-140.92808458 115.17025144 -149.95467832 115.48705437 -158.98451233 115.87124634 C-169.59254951 116.30792306 -180.19750719 116.28759786 -190.8125 116.1875 C-190.23091579 110.43732066 -188.06286075 105.69397296 -185.6875 100.5 C-185.08397705 99.16642456 -185.08397705 99.16642456 -184.46826172 97.8059082 C-181.78386617 91.99042605 -178.83991203 86.67395104 -175.23828125 81.375 C-173.95187519 79.40133591 -173.00279937 77.55306902 -172.125 75.375 C-170.70859821 71.93516707 -169.10133798 69.12007367 -166.8125 66.1875 C-165.8225 66.1875 -164.8325 66.1875 -163.8125 66.1875 C-163.71582031 65.59839844 -163.61914062 65.00929688 -163.51953125 64.40234375 C-162.66675506 61.73093989 -161.54440327 60.64556021 -159.5 58.75 C-157.27457704 56.63835122 -155.44097922 54.70245898 -153.5625 52.25 C-152.69625 51.2290625 -152.69625 51.2290625 -151.8125 50.1875 C-150.8225 50.1875 -149.8325 50.1875 -148.8125 50.1875 C-148.565 49.548125 -148.3175 48.90875 -148.0625 48.25 C-146.8125 46.1875 -146.8125 46.1875 -144.75 45.625 C-144.110625 45.480625 -143.47125 45.33625 -142.8125 45.1875 C-142.4825 44.1975 -142.1525 43.2075 -141.8125 42.1875 C-140.8225 42.1875 -139.8325 42.1875 -138.8125 42.1875 C-138.379375 41.259375 -138.379375 41.259375 -137.9375 40.3125 C-136.8125 38.1875 -136.8125 38.1875 -134.8125 36.1875 C-133.8225 36.1875 -132.8325 36.1875 -131.8125 36.1875 C-131.8125 35.5275 -131.8125 34.8675 -131.8125 34.1875 C-130.8225 34.1875 -129.8325 34.1875 -128.8125 34.1875 C-128.8125 33.5275 -128.8125 32.8675 -128.8125 32.1875 C-126.5025 31.5275 -124.1925 30.8675 -121.8125 30.1875 C-121.8125 29.5275 -121.8125 28.8675 -121.8125 28.1875 C-119.68967331 27.18289469 -117.56416979 26.18394398 -115.4375 25.1875 C-114.25414062 24.630625 -113.07078125 24.07375 -111.8515625 23.5 C-108.8125 22.1875 -108.8125 22.1875 -106.8125 22.1875 C-106.8125 21.5275 -106.8125 20.8675 -106.8125 20.1875 C-71.98156858 6.47991421 -37.33321354 -0.05570043 0 0 Z " fill="#252A3C" transform="translate(329.8125,-0.1875)"/>
<path d="M0 0 C1.93379005 -0.01818602 3.86743023 -0.05059585 5.80102539 -0.08352661 C21.57046124 -0.14122479 34.65753777 3.8105562 46.18579102 14.7975769 C66.2143737 35.83940997 72.83979945 73.82886835 72.87719727 101.85617065 C72.87905029 103.11308716 72.88090332 104.37000366 72.8828125 105.66500854 C72.68352743 122.0248968 69.30818884 136.18227965 57.68188477 148.3288269 C53.96747307 151.57061632 49.90727204 154.03941241 45.50219727 156.23117065 C44.76485352 156.60370972 44.02750977 156.97624878 43.26782227 157.3600769 C34.74150343 160.04562648 23.23081852 159.66956587 15.12719727 155.98117065 C8.06862921 151.81334856 2.26044557 146.00142365 -3.49780273 140.23117065 C-4.25834961 139.4732019 -5.01889648 138.71523315 -5.80249023 137.93429565 C-6.42381836 137.3103894 -7.04514648 136.68648315 -7.68530273 136.04367065 C-10.8452493 132.88372408 -11.40165096 132.33656986 -15.74780273 131.91867065 C-22.24400353 131.9895383 -28.34886042 134.33651913 -34.49780273 136.23117065 C-35.41303711 136.46964722 -36.32827148 136.70812378 -37.27124023 136.9538269 C-50.27849416 140.38002786 -57.19025854 147.23231749 -63.8815918 158.57736206 C-66.49359918 163.07222688 -69.05872816 167.59284894 -71.61108398 172.12179565 C-80.91537266 188.6263729 -90.01300678 204.60341809 -108.66577148 211.3132019 C-119.86964821 213.99710713 -132.18686648 213.61871773 -142.49780273 208.23117065 C-143.40272461 207.76066284 -144.30764648 207.29015503 -145.23999023 206.8053894 C-149.84442295 204.22290323 -153.68194035 201.83894546 -156.49780273 197.23117065 C-156.49780273 196.57117065 -156.49780273 195.91117065 -156.49780273 195.23117065 C-157.4375293 195.10161987 -157.4375293 195.10161987 -158.39624023 194.9694519 C-159.62213867 194.75869019 -159.62213867 194.75869019 -160.87280273 194.54367065 C-161.68491211 194.41605347 -162.49702148 194.28843628 -163.33374023 194.1569519 C-165.49780273 193.23117065 -165.49780273 193.23117065 -166.69311523 191.0241394 C-169.41942756 181.56145343 -171.14206673 171.97652005 -172.49780273 162.23117065 C-173.12428711 162.26597534 -173.75077148 162.30078003 -174.39624023 162.3366394 C-175.21350586 162.36370972 -176.03077148 162.39078003 -176.87280273 162.41867065 C-177.68491211 162.45347534 -178.49702148 162.48828003 -179.33374023 162.5241394 C-180.04788086 162.42745972 -180.76202148 162.33078003 -181.49780273 162.23117065 C-183.91910604 158.59921569 -183.70803059 156.84767718 -183.62280273 152.54367065 C-183.60475586 151.36417847 -183.58670898 150.18468628 -183.56811523 148.9694519 C-183.54491211 148.06581909 -183.52170898 147.16218628 -183.49780273 146.23117065 C-184.1578833 146.18629517 -184.81796387 146.14141968 -185.49804688 146.09518433 C-188.51985425 145.88246307 -191.53992111 145.65072659 -194.56030273 145.41867065 C-195.59864258 145.34841675 -196.63698242 145.27816284 -197.70678711 145.20578003 C-203.56793863 144.74060927 -208.33122906 144.1202343 -213.49780273 141.23117065 C-216.86358934 136.07029785 -217.63091224 130.99289563 -217.59545898 124.9303894 C-217.59223633 123.95392456 -217.58901367 122.97745972 -217.58569336 121.97140503 C-217.57731445 120.96400269 -217.56893555 119.95660034 -217.56030273 118.91867065 C-217.55579102 117.89193237 -217.5512793 116.86519409 -217.54663086 115.80734253 C-217.53488458 113.28189183 -217.51845838 110.75656161 -217.49780273 108.23117065 C-220.96280273 107.73617065 -220.96280273 107.73617065 -224.49780273 107.23117065 C-224.49780273 106.57117065 -224.49780273 105.91117065 -224.49780273 105.23117065 C-225.61155273 104.94242065 -226.72530273 104.65367065 -227.87280273 104.35617065 C-231.59002959 103.20254853 -232.74114898 102.61744869 -234.56811523 99.27023315 C-237.79010115 91.89546539 -239.34798429 84.44317147 -236.57983398 76.64523315 C-232.92572975 69.52623397 -227.84348174 65.39963353 -220.49780273 62.23117065 C-217.24975586 61.84640503 -217.24975586 61.84640503 -213.77905273 61.82492065 C-212.51706055 61.80300659 -211.25506836 61.78109253 -209.95483398 61.7585144 C-207.31681315 61.74028524 -204.67879232 61.72205607 -202.04077148 61.7038269 C-200.7787793 61.68191284 -199.51678711 61.65999878 -198.21655273 61.63742065 C-197.0712207 61.63033081 -195.92588867 61.62324097 -194.74584961 61.61593628 C-191.0558683 61.17881883 -188.65702886 60.16422357 -185.49780273 58.23117065 C-182.82933974 54.22847616 -181.78493246 51.01758538 -182.49780273 46.23117065 C-184.7350581 42.71548365 -186.69257236 40.82868178 -190.49780273 39.23117065 C-192.13638219 38.9194409 -193.78349312 38.65028032 -195.43530273 38.41867065 C-200.18011434 37.53819015 -202.46514808 36.11675943 -205.49780273 32.23117065 C-208.2081597 28.16563521 -208.01307166 24.99945292 -207.49780273 20.23117065 C-205.53346234 14.55640953 -201.86979612 10.91716735 -196.49780273 8.23117065 C-194.31812913 8.02840598 -192.13292845 7.88423051 -189.94702148 7.7663269 C-189.27424667 7.72877289 -188.60147186 7.69121887 -187.90830994 7.65252686 C-185.66752244 7.52854354 -183.4264492 7.41097316 -181.18530273 7.29367065 C-179.60309076 7.20814624 -178.02089699 7.12228437 -176.4387207 7.03610229 C-173.96492068 6.90171327 -171.49109256 6.76800342 -169.01715088 6.63624573 C-163.42500561 6.3384154 -157.83430604 6.02076188 -152.24389648 5.69210815 C-134.89198827 4.68336533 -117.55624021 3.93722719 -100.17797852 3.57272339 C-93.30285467 3.42373927 -86.45885755 3.19581628 -79.59545898 2.7350769 C-71.46472007 2.19149408 -63.34172928 1.96513855 -55.19580078 1.78533936 C-39.08888365 1.43437002 -39.08888365 1.43437002 -22.99780273 0.66867065 C-15.3364755 0.23526818 -7.6727115 0.06260191 0 0 Z M-57.12034607 21.47814941 C-63.46004399 23.24451295 -69.83665192 24.80764926 -76.24780273 26.29367065 C-85.07977455 28.37955339 -93.80748894 30.6118679 -102.49780273 33.23117065 C-103.59995117 33.5353894 -104.70209961 33.83960815 -105.83764648 34.15304565 C-122.62791653 38.9334726 -136.02358179 48.237929 -144.75561523 63.52804565 C-150.57863397 75.25129442 -153.27328069 88.60444196 -156.06860352 101.31466675 C-156.71305579 104.19234046 -157.42635808 107.05319937 -158.12280273 109.91867065 C-160.75693234 121.55642023 -161.89252288 133.03407494 -161.92333984 144.93478394 C-161.93526062 147.09852719 -161.98469177 149.25942774 -162.03491211 151.4225769 C-162.21268653 166.80376774 -158.28659495 181.29601423 -147.88061523 193.05929565 C-146.1744305 194.67568119 -144.46850284 195.95119118 -142.49780273 197.23117065 C-141.38211914 197.9582019 -141.38211914 197.9582019 -140.24389648 198.69992065 C-131.13885616 203.70421762 -120.44350418 203.65752006 -110.43530273 201.6022644 C-96.25413189 196.66101269 -88.97471182 183.0420755 -82.11499023 170.69161987 C-69.941033 148.79994426 -60.2740282 133.63351317 -35.49780273 126.23117065 C-34.44850586 125.90761597 -33.39920898 125.58406128 -32.31811523 125.2507019 C-23.64025146 122.79926293 -13.79985257 121.15634159 -5.32568359 125.08956909 C-1.5571786 127.44318594 1.30606619 130.81406874 4.31469727 134.04367065 C11.8013369 141.81962391 19.25676378 149.23592388 30.62719727 149.54367065 C39.57474622 149.43757324 47.07518389 145.34632473 53.50219727 139.23117065 C64.95787232 125.26146737 64.9184134 107.59286756 63.21801758 90.34933472 C60.17302811 66.69964443 54.26728551 32.94893466 34.50219727 17.23117065 C6.57814602 -0.64022215 -28.235224 13.38224762 -57.12034607 21.47814941 Z " fill="#EB8736" transform="translate(279.497802734375,123.76882934570313)"/>
<path d="M0 0 C-0.33 2.64 -0.66 5.28 -1 8 C-8.53488151 10.67654564 -16.15595584 12.55623372 -23.9375 14.375 C-32.08077989 16.30095477 -40.20662042 18.24846838 -48.25 20.5625 C-55.36878889 22.6096063 -62.54147512 24.35966122 -69.75 26.0625 C-78.58120436 28.15219099 -87.30941284 30.38061485 -96 33 C-97.10214844 33.30421875 -98.20429688 33.6084375 -99.33984375 33.921875 C-115.71791025 38.58494178 -128.60315481 47.2613185 -137.22265625 62.26171875 C-143.0991378 73.96700894 -145.77437589 87.36826025 -148.57080078 100.08349609 C-149.21525306 102.9611698 -149.92855535 105.82202872 -150.625 108.6875 C-153.2591296 120.32524958 -154.39472014 131.80290429 -154.42553711 143.70361328 C-154.43745789 145.86735654 -154.48688904 148.02825708 -154.53710938 150.19140625 C-154.70327776 164.57724857 -151.3801594 178.66970351 -142 190 C-139.5205894 192.41856616 -136.97900594 194.24532036 -134 196 C-133.38125 196.41121094 -132.7625 196.82242188 -132.125 197.24609375 C-123.98555327 201.84042989 -112.80491308 201.23400039 -103.89453125 199.33984375 C-90.09457971 194.39753552 -83.33289328 181.55257761 -76.61743164 169.46069336 C-64.371255 147.44119982 -54.12478763 131.34216592 -29 124 C-27.42798828 123.51660156 -27.42798828 123.51660156 -25.82421875 123.0234375 C-17.14847386 120.56435219 -7.30121744 118.92555729 1.17211914 122.85839844 C4.94062414 125.21201529 7.80386892 128.58289808 10.8125 131.8125 C18.29913964 139.58845326 25.75456652 147.00475322 37.125 147.3125 C42.92490223 147.24372646 47.0279091 145.91183224 52 143 C52.68964844 142.61070312 53.37929688 142.22140625 54.08984375 141.8203125 C59.75935266 138.14220499 62.50609397 133.30521813 65.65234375 127.4140625 C66.31943359 126.21910156 66.31943359 126.21910156 67 125 C67.33 125 67.66 125 68 125 C68.58695652 140.67391304 68.58695652 140.67391304 65 146 C62.21048728 148.70288189 59.25050679 150.88192784 56 153 C55.36578125 153.43828125 54.7315625 153.8765625 54.078125 154.328125 C45.72153311 159.0746692 33.58641429 158.50915619 24.55859375 156.0703125 C16.05076533 152.24122328 9.50894962 145.52251935 3 139 C2.23945313 138.24203125 1.47890625 137.4840625 0.6953125 136.703125 C0.07398438 136.07921875 -0.54734375 135.4553125 -1.1875 134.8125 C-4.34744657 131.65255343 -4.90384822 131.10539921 -9.25 130.6875 C-15.7462008 130.75836765 -21.85105769 133.10534847 -28 135 C-28.91523438 135.23847656 -29.83046875 135.47695313 -30.7734375 135.72265625 C-43.78069142 139.1488572 -50.6924558 146.00114683 -57.38378906 157.34619141 C-59.99579645 161.84105623 -62.56092543 166.36167829 -65.11328125 170.890625 C-74.41756993 187.39520225 -83.51520405 203.37224744 -102.16796875 210.08203125 C-113.37184547 212.76593648 -125.68906374 212.38754708 -136 207 C-136.90492188 206.52949219 -137.80984375 206.05898438 -138.7421875 205.57421875 C-143.34662022 202.99173257 -147.18413762 200.60777481 -150 196 C-150 195.34 -150 194.68 -150 194 C-150.93972656 193.87044922 -150.93972656 193.87044922 -151.8984375 193.73828125 C-153.12433594 193.52751953 -153.12433594 193.52751953 -154.375 193.3125 C-155.18710938 193.18488281 -155.99921875 193.05726563 -156.8359375 192.92578125 C-159 192 -159 192 -160.1953125 189.77734375 C-164.96738483 173.30674458 -166.35044761 156.51160013 -166.8125 139.4375 C-166.83435364 138.65863434 -166.85620728 137.87976868 -166.87872314 137.07730103 C-167.22640263 123.47845741 -166.49856788 110.40140953 -164 97 C-163.82162598 96.01725098 -163.64325195 95.03450195 -163.45947266 94.02197266 C-160.31936271 77.15982651 -156.35635507 61.0074869 -146 47 C-145.23623047 45.94425781 -145.23623047 45.94425781 -144.45703125 44.8671875 C-134.10911282 31.83647541 -118.1892084 25.33908225 -102.4375 21.75 C-101.211521 21.46189453 -99.98554199 21.17378906 -98.72241211 20.87695312 C-85.74010206 17.84791937 -72.68944678 15.11585885 -59.64868164 12.35229492 C-42.84718293 8.78716143 -26.04256529 5.12721848 -9.4140625 0.81640625 C-6.13539761 0.03237769 -3.355111 -0.16775555 0 0 Z " fill="#D45231" transform="translate(273,125)"/>
<path d="M0 0 C2.62022152 2.2749688 4.95713277 4.76772499 7.3125 7.3125 C14.88838957 15.18767462 23.06263945 22.89003748 34.421875 24.30078125 C42.53115397 24.34159977 49.5895923 22.21117667 57 19 C53.45707127 26.54797859 47.78911182 31.57853741 40.125 34.9375 C33.28491856 37.09538284 26.49301518 37.03666623 19.9375 34.0625 C11.11735519 29.10203941 4.25781176 21.39553979 -2.578125 14.06640625 C-7.67136404 9.72072326 -13.45633917 9.45107778 -19.90234375 9.5546875 C-34.82462726 10.75572171 -53.65966552 16.14008966 -64.015625 27.4375 C-70.66191196 36.02010679 -75.82449472 45.61526275 -81 55.125 C-96.35677532 83.22187657 -96.35677532 83.22187657 -110.9140625 88.328125 C-122.45591489 90.84103463 -132.81253442 89.9614409 -143.0703125 84.05078125 C-150.56824413 78.80222911 -154.32871855 72.25615367 -158 64 C-157.01 63.505 -157.01 63.505 -156 63 C-155.34 63.721875 -154.68 64.44375 -154 65.1875 C-146.92848859 72.19925216 -139.3279842 75.01955072 -129.5 75.25 C-118.86706401 75.00136188 -108.7232304 71.25902673 -100.82421875 63.94921875 C-93.17083829 55.77140965 -87.28786745 46.44058117 -81.40283203 36.96704102 C-69.41166244 17.74516131 -58.10272424 6.39688919 -36 0 C-35.32565918 -0.19899902 -34.65131836 -0.39799805 -33.95654297 -0.60302734 C-22.26851101 -3.9952515 -10.8467121 -7.05230672 0 0 Z " fill="#C5C9CA" transform="translate(280,237)"/>
<path d="M0 0 C2.79134973 2.43302268 5.29023478 5.10498539 7.8125 7.8125 C15.29913964 15.58845326 22.75456652 23.00475322 34.125 23.3125 C39.92490223 23.24372646 44.0279091 21.91183224 49 19 C49.68964844 18.61070312 50.37929688 18.22140625 51.08984375 17.8203125 C56.75935266 14.14220499 59.50609397 9.30521813 62.65234375 3.4140625 C63.09707031 2.61742187 63.54179687 1.82078125 64 1 C64.33 1 64.66 1 65 1 C65.58695652 16.67391304 65.58695652 16.67391304 62 22 C59.21048728 24.70288189 56.25050679 26.88192784 53 29 C52.36578125 29.43828125 51.7315625 29.8765625 51.078125 30.328125 C42.72153311 35.0746692 30.58641429 34.50915619 21.55859375 32.0703125 C13.05076533 28.24122328 6.50894962 21.52251935 0 15 C-0.76054687 14.24203125 -1.52109375 13.4840625 -2.3046875 12.703125 C-2.92601562 12.07921875 -3.54734375 11.4553125 -4.1875 10.8125 C-7.34744657 7.65255343 -7.90384822 7.10539921 -12.25 6.6875 C-18.7462008 6.75836765 -24.85105769 9.10534847 -31 11 C-31.91523438 11.23847656 -32.83046875 11.47695313 -33.7734375 11.72265625 C-46.78069142 15.1488572 -53.6924558 22.00114683 -60.38378906 33.34619141 C-62.99579645 37.84105623 -65.56092543 42.36167829 -68.11328125 46.890625 C-77.41756993 63.39520225 -86.51520405 79.37224744 -105.16796875 86.08203125 C-116.40175443 88.77310121 -128.65244673 88.35736226 -139 83 C-139.88171875 82.57589844 -140.7634375 82.15179688 -141.671875 81.71484375 C-148.99902926 77.82364792 -152.9817377 72.84657544 -156.1484375 65.2421875 C-157.19113002 61.27230315 -157.22089326 57.70415179 -157.125 53.625 C-157.11597656 52.88894531 -157.10695313 52.15289062 -157.09765625 51.39453125 C-157.07430144 49.5962112 -157.03843836 47.79806089 -157 46 C-154.34327341 48.31344169 -153.36540179 50.31036262 -152.25 53.625 C-148.42036934 63.50141592 -142.45149524 69.36542436 -133 74 C-132.25363281 74.37511719 -131.50726563 74.75023437 -130.73828125 75.13671875 C-122.15082187 77.84403476 -110.14694285 77.27891955 -102.09765625 73.31640625 C-91.34607808 66.56914025 -85.62604312 56.2798207 -79.61743164 45.46069336 C-67.371255 23.44119982 -57.12478763 7.34216592 -32 0 C-30.42798828 -0.48339844 -30.42798828 -0.48339844 -28.82421875 -0.9765625 C-19.50697134 -3.61747766 -8.64538773 -5.39947015 0 0 Z " fill="#2A2D3E" transform="translate(276,249)"/>
<path d="M0 0 C5.43500636 2.22034008 10.86042931 4.9096972 14.19921875 9.8984375 C15.98729945 15.63832682 16.532584 23.00316948 15.19921875 28.8984375 C13.11226073 31.6090486 12.28820987 31.87930952 8.80078125 32.62890625 C7.47683783 32.79439918 6.15114133 32.94632885 4.82421875 33.0859375 C3.51710937 33.24449219 2.21 33.40304687 0.86328125 33.56640625 C-7.19223767 34.29638398 -7.19223767 34.29638398 -9.5390625 32.76171875 C-11.24109759 30.24818705 -11.54746658 28.0812167 -11.98828125 25.0859375 C-12.14683594 24.06886719 -12.30539063 23.05179688 -12.46875 22.00390625 C-13.34746489 13.78533756 -13.34746489 13.78533756 -11.15625 10.23046875 C-10.08310547 8.98330078 -10.08310547 8.98330078 -8.98828125 7.7109375 C-8.28058594 6.87175781 -7.57289063 6.03257812 -6.84375 5.16796875 C-6.16957031 4.41902344 -5.49539062 3.67007813 -4.80078125 2.8984375 C-4.05248047 1.97611328 -4.05248047 1.97611328 -3.2890625 1.03515625 C-1.80078125 -0.1015625 -1.80078125 -0.1015625 0 0 Z " fill="#292D3E" transform="translate(193.80078125,224.1015625)"/>
<path d="M0 0 C2.4296875 -0.0859375 2.4296875 -0.0859375 6.3671875 0.1640625 C11.46585416 5.26272916 10.59801052 14.9437291 10.6328125 21.6953125 C10.3671875 24.1640625 10.3671875 24.1640625 8.3671875 26.1640625 C5.5390625 26.796875 5.5390625 26.796875 2.1171875 27.2890625 C0.99828125 27.45664063 -0.120625 27.62421875 -1.2734375 27.796875 C-2.38203125 27.91804688 -3.490625 28.03921875 -4.6328125 28.1640625 C-5.62023437 28.29554688 -6.60765625 28.42703125 -7.625 28.5625 C-12.03269114 27.97862403 -14.3104263 25.60826201 -17.5078125 22.6640625 C-18.10078125 22.13941406 -18.69375 21.61476562 -19.3046875 21.07421875 C-20.75915332 19.78396681 -22.19763622 18.47573697 -23.6328125 17.1640625 C-21.48769818 11.21964121 -18.32453327 6.42164677 -13.6328125 2.1640625 C-9.1480658 0.32399731 -4.77589174 0.2976075 0 0 Z " fill="#2A2E3F" transform="translate(221.6328125,199.8359375)"/>
<path d="M0 0 C1.46063934 2.34906946 1.8783462 4.34953745 2.32421875 7.078125 C2.48277344 7.99078125 2.64132813 8.9034375 2.8046875 9.84375 C2.91425781 10.82859375 3.02382812 11.8134375 3.13671875 12.828125 C3.26691406 13.95863281 3.39710938 15.08914062 3.53125 16.25390625 C2.99510735 21.11104015 0.89005 23.28448063 -2.36328125 26.765625 C-3.15025391 27.64831055 -3.15025391 27.64831055 -3.953125 28.54882812 C-5.24118541 29.98911386 -6.55020942 31.41060428 -7.86328125 32.828125 C-11.39894479 31.21566087 -14.41103448 29.10852853 -17.55078125 26.828125 C-18.52402344 26.126875 -19.49726563 25.425625 -20.5 24.703125 C-22.91951189 22.78351226 -23.71295835 21.9997457 -24.1003418 18.98046875 C-24.26140478 16.59684176 -24.4123299 14.2131802 -24.55078125 11.828125 C-24.61072266 10.99539062 -24.67066406 10.16265625 -24.73242188 9.3046875 C-24.77947266 8.50804687 -24.82652344 7.71140625 -24.875 6.890625 C-24.92100342 6.15972656 -24.96700684 5.42882812 -25.0144043 4.67578125 C-24.86328125 2.828125 -24.86328125 2.828125 -22.86328125 0.828125 C-19.8515625 0.1953125 -19.8515625 0.1953125 -16.17578125 -0.296875 C-14.97566406 -0.46445313 -13.77554688 -0.63203125 -12.5390625 -0.8046875 C-2.82271122 -1.77529007 -2.82271122 -1.77529007 0 0 Z " fill="#2B2E40" transform="translate(199.86328125,178.171875)"/>
<path d="M0 0 C6.25503789 -0.0391756 11.74616006 6.65891605 16.0625 10.6875 C13.84493305 17.04994339 9.95115649 22.09767988 5.0625 26.6875 C1.95076007 27.98315478 -0.61205708 27.90919619 -3.9375 27.6875 C-4.8346875 27.7184375 -5.731875 27.749375 -6.65625 27.78125 C-11.57589286 27.95089286 -11.57589286 27.95089286 -13.9375 27.6875 C-16.67925713 24.94574287 -16.55167776 22.81495025 -17.0625 19 C-17.23007813 17.79988281 -17.39765625 16.59976563 -17.5703125 15.36328125 C-18.53980939 5.65799852 -18.53980939 5.65799852 -16.76171875 2.79296875 C-13.60500345 0.8800128 -10.37940669 1.03295323 -6.765625 0.84375 C-3.73737379 0.73194766 -3.73737379 0.73194766 0 0 Z " fill="#292C3E" transform="translate(169.9375,206.3125)"/>
<path d="M0 0 C4.53556098 2.56213591 7.39547518 4.91238688 8.88671875 10.08203125 C9.15255252 14.84988861 8.57742742 18.71670665 5.57421875 22.51953125 C1.0723759 26.81198606 -2.44132091 27.63873105 -8.56640625 27.5390625 C-12.78032869 26.78288317 -15.49044201 24.37862735 -18.11328125 21.08203125 C-19.83837716 15.90674351 -19.94892857 10.34319458 -18.05078125 5.20703125 C-13.15977188 -0.15730161 -7.04548897 -3.06042497 0 0 Z " fill="#2A2D3F" transform="translate(267.11328125,196.91796875)"/>
<path d="M0 0 C4.14623807 1.79042098 6.17613802 3.87231236 8 8 C8.5931368 11.98248997 8.17424115 13.67640929 6.25 17.25 C3.08484 21.11852888 1.54156269 21.8001678 -3.375 22.4375 C-8.1853299 21.85694294 -9.61392593 20.38607407 -13 17 C-14.61429923 13.77140153 -14.59570657 10.49006347 -14 7 C-10.47547774 0.85838845 -6.87571247 -0.46615 0 0 Z " fill="#EC8936" transform="translate(106,96)"/>
<path d="M0 0 C3.3825 -0.0825 6.765 -0.165 10.25 -0.25 C11.30993164 -0.28641602 12.36986328 -0.32283203 13.46191406 -0.36035156 C20.36135015 -0.4421422 20.36135015 -0.4421422 23.640625 1.828125 C25.50453375 4.80609415 25.57495192 6.55028849 25 10 C22.77354476 12.95258932 21.64787143 13.90815616 17.94140625 14.43359375 C16.26884766 14.43552734 16.26884766 14.43552734 14.5625 14.4375 C9.10415625 14.55082559 9.10415625 14.55082559 4.75 17.4375 C3.02111144 19.84518279 3.02111144 19.84518279 2 22 C1.34 22 0.68 22 0 22 C0 14.74 0 7.48 0 0 Z " fill="#FDFDFC" transform="translate(62,232)"/>
<path d="M0 0 C3.94875513 2.45865885 5.66872408 3.98776803 7.125 8.4375 C6.97081485 12.8317768 5.79511239 14.66139354 3 18 C-0.7373856 20.4915904 -2.57331583 20.45793285 -7 20 C-9.75329021 18.20437595 -11.52627461 16.94745078 -13 14 C-13.70153846 6.86769231 -13.70153846 6.86769231 -10.625 3.0625 C-6.84598336 0.09327264 -4.82619179 -0.55686828 0 0 Z " fill="#2D3042" transform="translate(301,187)"/>
<path d="M0 0 C2.8100346 1.79363911 4.50940468 3.01880935 6 6 C6.50312928 10.36045376 6.24536764 12.55015933 4.125 16.4375 C1.62602148 19.10832804 -0.45813735 19.47060337 -4.0625 19.625 C-7.17956602 19.40699092 -8.81115804 19.10593573 -11.5625 17.5625 C-13.66611953 13.81256953 -14.34429202 10.29217387 -14 6 C-10.48028041 0.17425724 -6.63382773 -0.95313617 0 0 Z " fill="#2A2D3F" transform="translate(293,150)"/>
<path d="M0 0 C2.5647293 1.50012468 4.89183465 2.89183465 7 5 C7.58169863 9.61544489 7.6241677 13.00133167 5.125 17 C2.38262878 19.58105526 1.48737793 19.95402095 -2.3125 20.3125 C-6.57536111 19.95124058 -8.01992054 18.98007946 -11 16 C-12.60086627 12.79826746 -12.49917089 9.47422941 -12 6 C-8.64695006 0.74688842 -6.19417861 -0.5955941 0 0 Z " fill="#2B2D40" transform="translate(314,165)"/>
<path d="M0 0 C2.8100346 1.79363911 4.50940468 3.01880935 6 6 C6.39447548 10.18144011 6.45035186 12.30946048 4.125 15.875 C1.19961143 18.80038857 0.42659437 18.96503325 -3.8125 19.3125 C-6.83292415 19.24659984 -8.13081976 18.93598182 -10.9375 17.5625 C-13.85238176 13.94098024 -14.44335215 10.60593622 -14 6 C-10.48028041 0.17425724 -6.63382773 -0.95313617 0 0 Z " fill="#282C3D" transform="translate(279,172)"/>
<path d="M0 0 C2.75329021 1.79562405 4.52627461 3.05254922 6 6 C6.39447548 10.18144011 6.45035186 12.30946048 4.125 15.875 C1.17558183 18.82441817 0.40932362 18.96699003 -3.875 19.3125 C-7.07613675 19.28345157 -7.79001963 19.16152336 -10.4375 17.125 C-13.24954066 13.30062471 -13.40332315 10.75921314 -13 6 C-9.30920537 0.34078157 -6.6962915 -0.56748233 0 0 Z " fill="#EB8937" transform="translate(36,166)"/>
<path d="M0 0 C4.4297642 0.79102932 5.89210172 1.98974785 8.5 5.625 C9.2446324 9.59637281 8.87266878 11.06599683 6.625 14.4375 C4.12980912 17.00607884 3.21830363 17.52922618 -0.3125 18 C-3.5 17.625 -3.5 17.625 -6.375 15.5625 C-8.5 12.625 -8.5 12.625 -9.125 9.125 C-8.11027445 3.44253693 -5.68246307 1.01472555 0 0 Z " fill="#EB8A39" transform="translate(53.5,122.375)"/>
<path d="M0 0 C8.25 0 16.5 0 25 0 C27.14285714 14.0625 27.14285714 14.0625 27 21 C26.67 20.01 26.34 19.02 26 18 C25.06027344 18.05220703 25.06027344 18.05220703 24.1015625 18.10546875 C23.28429687 18.13253906 22.46703125 18.15960938 21.625 18.1875 C20.81289062 18.22230469 20.00078125 18.25710938 19.1640625 18.29296875 C18.44992188 18.19628906 17.73578125 18.09960938 17 18 C13.7169902 13.0754853 14.88469195 7.82305673 15 2 C10.05 1.67 5.1 1.34 0 1 C0 0.67 0 0.34 0 0 Z " fill="#FCFBFA" transform="translate(81,268)"/>
<path d="M0 0 C2.4375 1.5625 2.4375 1.5625 4 4 C4.55326548 7.87285839 4.56331202 10.04481874 2.5625 13.4375 C-1.21006824 15.73784649 -4.69066159 15.33148757 -9 15 C-11.22597431 10.67899104 -11.13071827 7.69682975 -10 3 C-7.67133148 -1.01048467 -4.26353269 -0.52359173 0 0 Z " fill="#EC8B3A" transform="translate(20,204)"/>
<path d="M0 0 C0 3.19914372 -0.40039471 4.041716 -1.9765625 6.703125 C-2.60812256 7.79294678 -2.60812256 7.79294678 -3.25244141 8.90478516 C-3.70538574 9.67870605 -4.15833008 10.45262695 -4.625 11.25 C-9.2179802 19.27101508 -12.8480901 27.3130288 -16 36 C-17.17679972 32.56501703 -16.81887767 30.43717527 -15.75 27 C-15.49734375 26.154375 -15.2446875 25.30875 -14.984375 24.4375 C-13.95997678 21.90089489 -12.67962436 20.14327067 -11 18 C-10.38540278 16.80726471 -9.80169693 15.59810168 -9.25 14.375 C-6.7464258 9.19181904 -3.38346509 4.63800833 0 0 Z " fill="#EDEDEE" transform="translate(156,77)"/>
<path d="M0 0 C1.40498732 2.66648657 2.4454448 5.24190849 3.3125 8.125 C5.00692575 13.36468579 7.44378614 18.13583765 10 23 C10.33 23.66 10.66 24.32 11 25 C8.69 24.34 6.38 23.68 4 23 C3.32488828 20.29352533 2.65972659 17.58522815 2 14.875 C1.80921875 14.11445313 1.6184375 13.35390625 1.421875 12.5703125 C0.3872748 8.28411166 -0.2272711 4.44599099 0 0 Z " fill="#FBF8F8" transform="translate(109,293)"/>
<path d="M0 0 C1.73169596 3.1622274 2.7128976 6.26742722 3.625 9.75 C3.88539062 10.73484375 4.14578125 11.7196875 4.4140625 12.734375 C4.60742188 13.48203125 4.80078125 14.2296875 5 15 C4.01 14.67 3.02 14.34 2 14 C0.45073518 9.18912503 -0.25400178 5.08003559 0 0 Z " fill="#F5E3DE" transform="translate(109,293)"/>
<path d="M0 0 C0.99 0.33 1.98 0.66 3 1 C1.7934375 2.0828125 1.7934375 2.0828125 0.5625 3.1875 C-2.02292072 6.02515689 -2.68042813 7.27166147 -3 11 C-3.33 11 -3.66 11 -4 11 C-4.36630156 7.06225823 -4.30233203 5.43460229 -2 2.125 C-1.34 1.42375 -0.68 0.7225 0 0 Z " fill="#414553" transform="translate(269,173)"/>
<path d="M0 0 C0.66 0.33 1.32 0.66 2 1 C0.02 3.97 0.02 3.97 -2 7 C-2.66 6.67 -3.32 6.34 -4 6 C-3.6875 4.125 -3.6875 4.125 -3 2 C-2.01 1.34 -1.02 0.68 0 0 Z " fill="#BDC0C2" transform="translate(335,256)"/>
<path d="M0 0 C0.66 0.33 1.32 0.66 2 1 C0.25 5.875 0.25 5.875 -2 7 C-2.125 4.625 -2.125 4.625 -2 2 C-1.34 1.34 -0.68 0.68 0 0 Z " fill="#E89648" transform="translate(344,257)"/>
</svg>
